<svg xmlns="http://www.w3.org/2000/svg" width="31.5" height="31.5" viewBox="0 0 31.5 31.5">
  <g id="user-avatar-filled-alt" transform="translate(-2.25 -2.25)">
    <path id="Tracé_7" data-name="Tracé 7" d="M18,2.25A15.75,15.75,0,1,0,33.75,18,15.75,15.75,0,0,0,18,2.25Zm9,25.784V27.35a5.86,5.86,0,0,0-5.625-5.975h-6.75a5.85,5.85,0,0,0-5.614,5.974c0,.012-.011.025-.011.037v.658a13.506,13.506,0,1,1,18-.011Z" fill="#484747"/>
    <path id="Tracé_8" data-name="Tracé 8" d="M18,7.875A5.625,5.625,0,1,0,23.625,13.5,5.625,5.625,0,0,0,18,7.875Z" fill="#484747"/>
  </g>
</svg>
